<?xml version="1.0" encoding="UTF-8" standalone="no"?>
<!DOCTYPE svg PUBLIC "-//W3C//DTD SVG 1.1//EN"
 "http://www.w3.org/Graphics/SVG/1.1/DTD/svg11.dtd">
<!-- Generated by graphviz version 14.0.2 (20251019.1705)
 -->
<!-- Title: PongProject Pages: 1 -->
<svg width="904pt" height="752pt"
 viewBox="0.00 0.00 904.00 752.00" xmlns="http://www.w3.org/2000/svg" xmlns:xlink="http://www.w3.org/1999/xlink">
<g id="graph0" class="graph" transform="scale(1 1) rotate(0) translate(4 748)">
<title>PongProject</title>
<polygon fill="white" stroke="none" points="-4,4 -4,-748 900.25,-748 900.25,4 -4,4"/>
<!-- Main -->
<g id="node1" class="node">
<title>Main</title>
<polygon fill="none" stroke="black" points="54,-520 0,-520 0,-484 54,-484 54,-520"/>
<text xml:space="preserve" text-anchor="middle" x="27" y="-498.12" font-family="Times New Roman,serif" font-size="10.00">Main</text>
</g>
<!-- AppConfig -->
<g id="node2" class="node">
<title>AppConfig</title>
<polygon fill="none" stroke="black" points="153.5,-520 91,-520 91,-484 153.5,-484 153.5,-520"/>
<text xml:space="preserve" text-anchor="middle" x="122.25" y="-498.12" font-family="Times New Roman,serif" font-size="10.00">AppConfig</text>
</g>
<!-- Main&#45;&gt;AppConfig -->
<g id="edge1" class="edge">
<title>Main&#45;&gt;AppConfig</title>
<path fill="none" stroke="black" d="M54.47,-502C62.25,-502 70.95,-502 79.43,-502"/>
<polygon fill="black" stroke="black" points="79.25,-505.5 89.25,-502 79.25,-498.5 79.25,-505.5"/>
</g>
<!-- BootstrapModels -->
<g id="node3" class="node">
<title>BootstrapModels</title>
<polygon fill="none" stroke="black" points="570.75,-711 484.25,-711 484.25,-675 570.75,-675 570.75,-711"/>
<text xml:space="preserve" text-anchor="middle" x="527.5" y="-689.12" font-family="Times New Roman,serif" font-size="10.00">BootstrapModels</text>
</g>
<!-- AppConfig&#45;&gt;BootstrapModels -->
<g id="edge2" class="edge">
<title>AppConfig&#45;&gt;BootstrapModels</title>
<path fill="none" stroke="black" d="M129.36,-520.3C138.58,-545.02 158.47,-588.68 190.5,-612 275.51,-673.89 401.58,-689.01 472.67,-692.38"/>
<polygon fill="black" stroke="black" points="472.36,-695.87 482.5,-692.78 472.65,-688.88 472.36,-695.87"/>
</g>
<!-- BootstrapSignals -->
<g id="node4" class="node">
<title>BootstrapSignals</title>
<polygon fill="none" stroke="black" points="304.75,-136 219,-136 219,-100 304.75,-100 304.75,-136"/>
<text xml:space="preserve" text-anchor="middle" x="261.88" y="-114.12" font-family="Times New Roman,serif" font-size="10.00">BootstrapSignals</text>
</g>
<!-- AppConfig&#45;&gt;BootstrapSignals -->
<g id="edge3" class="edge">
<title>AppConfig&#45;&gt;BootstrapSignals</title>
<path fill="none" stroke="black" d="M128.95,-483.6C140.14,-447.7 166.06,-365.89 190.5,-298 209.88,-244.16 234.67,-182.17 249.06,-146.78"/>
<polygon fill="black" stroke="black" points="252.24,-148.26 252.78,-137.67 245.76,-145.61 252.24,-148.26"/>
</g>
<!-- BootstrapSignalCommandMap -->
<g id="node5" class="node">
<title>BootstrapSignalCommandMap</title>
<polygon fill="none" stroke="black" points="333.25,-603 190.5,-603 190.5,-567 333.25,-567 333.25,-603"/>
<text xml:space="preserve" text-anchor="middle" x="261.88" y="-581.12" font-family="Times New Roman,serif" font-size="10.00">BootstrapSignalCommandMap</text>
</g>
<!-- AppConfig&#45;&gt;BootstrapSignalCommandMap -->
<g id="edge4" class="edge">
<title>AppConfig&#45;&gt;BootstrapSignalCommandMap</title>
<path fill="none" stroke="black" d="M150.35,-520.43C157.19,-524.96 164.57,-529.73 171.5,-534 186.33,-543.14 202.83,-552.71 217.57,-561.06"/>
<polygon fill="black" stroke="black" points="215.71,-564.03 226.14,-565.89 219.14,-557.93 215.71,-564.03"/>
</g>
<!-- BootstrapMediatorMap -->
<g id="node6" class="node">
<title>BootstrapMediatorMap</title>
<polygon fill="none" stroke="black" points="317.88,-343 205.88,-343 205.88,-307 317.88,-307 317.88,-343"/>
<text xml:space="preserve" text-anchor="middle" x="261.88" y="-321.12" font-family="Times New Roman,serif" font-size="10.00">BootstrapMediatorMap</text>
</g>
<!-- AppConfig&#45;&gt;BootstrapMediatorMap -->
<g id="edge5" class="edge">
<title>AppConfig&#45;&gt;BootstrapMediatorMap</title>
<path fill="none" stroke="black" d="M137.46,-483.72C161.77,-452.46 211.46,-388.55 239.82,-352.08"/>
<polygon fill="black" stroke="black" points="242.23,-354.68 245.61,-344.64 236.71,-350.38 242.23,-354.68"/>
</g>
<!-- BootstrapServices -->
<g id="node7" class="node">
<title>BootstrapServices</title>
<polygon fill="none" stroke="black" points="440.75,-555 351.25,-555 351.25,-519 440.75,-519 440.75,-555"/>
<text xml:space="preserve" text-anchor="middle" x="396" y="-533.12" font-family="Times New Roman,serif" font-size="10.00">BootstrapServices</text>
</g>
<!-- AppConfig&#45;&gt;BootstrapServices -->
<g id="edge6" class="edge">
<title>AppConfig&#45;&gt;BootstrapServices</title>
<path fill="none" stroke="black" d="M153.89,-505.95C198.96,-511.75 283.81,-522.68 339.87,-529.9"/>
<polygon fill="black" stroke="black" points="339.16,-533.34 349.52,-531.14 340.05,-526.39 339.16,-533.34"/>
</g>
<!-- BootstrapUtils -->
<g id="node8" class="node">
<title>BootstrapUtils</title>
<polygon fill="none" stroke="black" points="299.88,-82 223.88,-82 223.88,-46 299.88,-46 299.88,-82"/>
<text xml:space="preserve" text-anchor="middle" x="261.88" y="-60.12" font-family="Times New Roman,serif" font-size="10.00">BootstrapUtils</text>
</g>
<!-- AppConfig&#45;&gt;BootstrapUtils -->
<g id="edge7" class="edge">
<title>AppConfig&#45;&gt;BootstrapUtils</title>
<path fill="none" stroke="black" d="M123.89,-483.56C126.71,-411.88 140.28,-152.68 190.5,-91 196.37,-83.79 204.41,-78.5 212.96,-74.62"/>
<polygon fill="black" stroke="black" points="214.04,-77.95 222.12,-71.1 211.53,-71.42 214.04,-77.95"/>
</g>
<!-- StarlingGameModel -->
<g id="node9" class="node">
<title>StarlingGameModel</title>
<polygon fill="none" stroke="black" points="740.38,-744 641.12,-744 641.12,-708 740.38,-708 740.38,-744"/>
<text xml:space="preserve" text-anchor="middle" x="690.75" y="-722.12" font-family="Times New Roman,serif" font-size="10.00">StarlingGameModel</text>
</g>
<!-- BootstrapModels&#45;&gt;StarlingGameModel -->
<g id="edge8" class="edge">
<title>BootstrapModels&#45;&gt;StarlingGameModel</title>
<path fill="none" stroke="black" d="M570.87,-701.67C588.81,-705.34 610.04,-709.69 629.56,-713.68"/>
<polygon fill="black" stroke="black" points="628.83,-717.11 639.33,-715.68 630.24,-710.25 628.83,-717.11"/>
</g>
<!-- BallModel -->
<g id="node10" class="node">
<title>BallModel</title>
<polygon fill="none" stroke="black" points="720.88,-636 660.62,-636 660.62,-600 720.88,-600 720.88,-636"/>
<text xml:space="preserve" text-anchor="middle" x="690.75" y="-614.12" font-family="Times New Roman,serif" font-size="10.00">BallModel</text>
</g>
<!-- BootstrapModels&#45;&gt;BallModel -->
<g id="edge9" class="edge">
<title>BootstrapModels&#45;&gt;BallModel</title>
<path fill="none" stroke="black" d="M571.17,-677.03C579.57,-673.59 588.26,-669.84 596.25,-666 613.29,-657.81 616.49,-653.75 633.25,-645 638.67,-642.17 644.44,-639.28 650.14,-636.49"/>
<polygon fill="black" stroke="black" points="651.38,-639.78 658.87,-632.28 648.34,-633.47 651.38,-639.78"/>
</g>
<!-- HudModel -->
<g id="node11" class="node">
<title>HudModel</title>
<polygon fill="none" stroke="black" points="721.25,-690 660.25,-690 660.25,-654 721.25,-654 721.25,-690"/>
<text xml:space="preserve" text-anchor="middle" x="690.75" y="-668.12" font-family="Times New Roman,serif" font-size="10.00">HudModel</text>
</g>
<!-- BootstrapModels&#45;&gt;HudModel -->
<g id="edge10" class="edge">
<title>BootstrapModels&#45;&gt;HudModel</title>
<path fill="none" stroke="black" d="M570.87,-687.48C594.92,-684.35 624.9,-680.45 648.73,-677.34"/>
<polygon fill="black" stroke="black" points="648.92,-680.85 658.38,-676.09 648.01,-673.91 648.92,-680.85"/>
</g>
<!-- TickSignal -->
<g id="node12" class="node">
<title>TickSignal</title>
<polygon fill="none" stroke="black" points="882.38,-154 821.38,-154 821.38,-118 882.38,-118 882.38,-154"/>
<text xml:space="preserve" text-anchor="middle" x="851.88" y="-132.12" font-family="Times New Roman,serif" font-size="10.00">TickSignal</text>
</g>
<!-- BootstrapSignals&#45;&gt;TickSignal -->
<g id="edge11" class="edge">
<title>BootstrapSignals&#45;&gt;TickSignal</title>
<path fill="none" stroke="black" d="M305.16,-119.29C413.92,-122.62 702.32,-131.45 809.77,-134.74"/>
<polygon fill="black" stroke="black" points="809.45,-138.23 819.56,-135.04 809.67,-131.24 809.45,-138.23"/>
</g>
<!-- PlayerWonSignal -->
<g id="node13" class="node">
<title>PlayerWonSignal</title>
<polygon fill="none" stroke="black" points="571.12,-90 483.88,-90 483.88,-54 571.12,-54 571.12,-90"/>
<text xml:space="preserve" text-anchor="middle" x="527.5" y="-68.12" font-family="Times New Roman,serif" font-size="10.00">PlayerWonSignal</text>
</g>
<!-- BootstrapSignals&#45;&gt;PlayerWonSignal -->
<g id="edge12" class="edge">
<title>BootstrapSignals&#45;&gt;PlayerWonSignal</title>
<path fill="none" stroke="black" d="M305.23,-110.61C350.74,-102.67 423.17,-90.03 472.68,-81.39"/>
<polygon fill="black" stroke="black" points="473.07,-84.88 482.32,-79.71 471.87,-77.98 473.07,-84.88"/>
</g>
<!-- AssetsLoadedSignal -->
<g id="node14" class="node">
<title>AssetsLoadedSignal</title>
<polygon fill="none" stroke="black" points="577.12,-36 477.88,-36 477.88,0 577.12,0 577.12,-36"/>
<text xml:space="preserve" text-anchor="middle" x="527.5" y="-14.12" font-family="Times New Roman,serif" font-size="10.00">AssetsLoadedSignal</text>
</g>
<!-- BootstrapSignals&#45;&gt;AssetsLoadedSignal -->
<g id="edge13" class="edge">
<title>BootstrapSignals&#45;&gt;AssetsLoadedSignal</title>
<path fill="none" stroke="black" d="M304.94,-101.9C314.26,-98.32 324.09,-94.54 333.25,-91 341.26,-87.91 343.23,-87.07 351.25,-84 389.74,-69.27 433.09,-52.94 467.05,-40.21"/>
<polygon fill="black" stroke="black" points="468.17,-43.53 476.3,-36.74 465.71,-36.97 468.17,-43.53"/>
</g>
<!-- StartLoadingAssetsCommand -->
<g id="node15" class="node">
<title>StartLoadingAssetsCommand</title>
<polygon fill="none" stroke="black" points="596.25,-603 458.75,-603 458.75,-567 596.25,-567 596.25,-603"/>
<text xml:space="preserve" text-anchor="middle" x="527.5" y="-581.12" font-family="Times New Roman,serif" font-size="10.00">StartLoadingAssetsCommand</text>
</g>
<!-- BootstrapSignalCommandMap&#45;&gt;StartLoadingAssetsCommand -->
<g id="edge14" class="edge">
<title>BootstrapSignalCommandMap&#45;&gt;StartLoadingAssetsCommand</title>
<path fill="none" stroke="black" d="M333.52,-585C368.48,-585 410.81,-585 446.91,-585"/>
<polygon fill="black" stroke="black" points="446.88,-588.5 456.88,-585 446.88,-581.5 446.88,-588.5"/>
</g>
<!-- PlayerWonCommand -->
<g id="node16" class="node">
<title>PlayerWonCommand</title>
<polygon fill="none" stroke="black" points="579,-657 476,-657 476,-621 579,-621 579,-657"/>
<text xml:space="preserve" text-anchor="middle" x="527.5" y="-635.12" font-family="Times New Roman,serif" font-size="10.00">PlayerWonCommand</text>
</g>
<!-- BootstrapSignalCommandMap&#45;&gt;PlayerWonCommand -->
<g id="edge15" class="edge">
<title>BootstrapSignalCommandMap&#45;&gt;PlayerWonCommand</title>
<path fill="none" stroke="black" d="M333.52,-599.47C374.33,-607.83 425.2,-618.25 464.46,-626.29"/>
<polygon fill="black" stroke="black" points="463.74,-629.72 474.24,-628.3 465.15,-622.86 463.74,-629.72"/>
</g>
<!-- MainView -->
<g id="node18" class="node">
<title>MainView</title>
<polygon fill="none" stroke="black" points="557.25,-378 497.75,-378 497.75,-342 557.25,-342 557.25,-378"/>
<text xml:space="preserve" text-anchor="middle" x="527.5" y="-356.12" font-family="Times New Roman,serif" font-size="10.00">MainView</text>
</g>
<!-- BootstrapMediatorMap&#45;&gt;MainView -->
<g id="edge17" class="edge">
<title>BootstrapMediatorMap&#45;&gt;MainView</title>
<path fill="none" stroke="black" d="M318.14,-332.34C368.31,-339 441.13,-348.67 486.06,-354.63"/>
<polygon fill="black" stroke="black" points="485.53,-358.09 495.9,-355.94 486.45,-351.15 485.53,-358.09"/>
</g>
<!-- StarlingGameView -->
<g id="node19" class="node">
<title>StarlingGameView</title>
<polygon fill="none" stroke="black" points="574.5,-182 480.5,-182 480.5,-146 574.5,-146 574.5,-182"/>
<text xml:space="preserve" text-anchor="middle" x="527.5" y="-160.12" font-family="Times New Roman,serif" font-size="10.00">StarlingGameView</text>
</g>
<!-- BootstrapMediatorMap&#45;&gt;StarlingGameView -->
<g id="edge18" class="edge">
<title>BootstrapMediatorMap&#45;&gt;StarlingGameView</title>
<path fill="none" stroke="black" d="M273.73,-306.89C288.48,-283.75 317,-243.95 351.25,-221 386.9,-197.11 433.3,-182.61 469.4,-174.21"/>
<polygon fill="black" stroke="black" points="469.77,-177.71 478.77,-172.13 468.25,-170.88 469.77,-177.71"/>
</g>
<!-- LoadingScreenView -->
<g id="node20" class="node">
<title>LoadingScreenView</title>
<polygon fill="none" stroke="black" points="577.12,-236 477.88,-236 477.88,-200 577.12,-200 577.12,-236"/>
<text xml:space="preserve" text-anchor="middle" x="527.5" y="-214.12" font-family="Times New Roman,serif" font-size="10.00">LoadingScreenView</text>
</g>
<!-- BootstrapMediatorMap&#45;&gt;LoadingScreenView -->
<g id="edge19" class="edge">
<title>BootstrapMediatorMap&#45;&gt;LoadingScreenView</title>
<path fill="none" stroke="black" d="M278.87,-306.75C295.24,-289.31 322.33,-263.69 351.25,-250 387.32,-232.92 431.55,-224.93 466.56,-221.2"/>
<polygon fill="black" stroke="black" points="466.45,-224.73 476.07,-220.28 465.78,-217.76 466.45,-224.73"/>
</g>
<!-- BallView -->
<g id="node21" class="node">
<title>BallView</title>
<polygon fill="none" stroke="black" points="718.25,-344 663.25,-344 663.25,-308 718.25,-308 718.25,-344"/>
<text xml:space="preserve" text-anchor="middle" x="690.75" y="-322.12" font-family="Times New Roman,serif" font-size="10.00">BallView</text>
</g>
<!-- BootstrapMediatorMap&#45;&gt;BallView -->
<g id="edge20" class="edge">
<title>BootstrapMediatorMap&#45;&gt;BallView</title>
<path fill="none" stroke="black" d="M318.24,-325.13C406.25,-325.34 575.84,-325.73 651.58,-325.91"/>
<polygon fill="black" stroke="black" points="651.39,-329.41 661.39,-325.93 651.4,-322.41 651.39,-329.41"/>
</g>
<!-- LeftPaddleView -->
<g id="node22" class="node">
<title>LeftPaddleView</title>
<polygon fill="none" stroke="black" points="731.75,-528 649.75,-528 649.75,-492 731.75,-492 731.75,-528"/>
<text xml:space="preserve" text-anchor="middle" x="690.75" y="-506.12" font-family="Times New Roman,serif" font-size="10.00">LeftPaddleView</text>
</g>
<!-- BootstrapMediatorMap&#45;&gt;LeftPaddleView -->
<g id="edge21" class="edge">
<title>BootstrapMediatorMap&#45;&gt;LeftPaddleView</title>
<path fill="none" stroke="black" d="M267.58,-343.33C277.14,-376.39 302.19,-445.51 351.25,-477 439.27,-533.5 567.55,-527.61 638.23,-518.62"/>
<polygon fill="black" stroke="black" points="638.54,-522.11 647.98,-517.3 637.61,-515.17 638.54,-522.11"/>
</g>
<!-- RightPaddleView -->
<g id="node23" class="node">
<title>RightPaddleView</title>
<polygon fill="none" stroke="black" points="896.25,-482 807.5,-482 807.5,-446 896.25,-446 896.25,-482"/>
<text xml:space="preserve" text-anchor="middle" x="851.88" y="-460.12" font-family="Times New Roman,serif" font-size="10.00">RightPaddleView</text>
</g>
<!-- BootstrapMediatorMap&#45;&gt;RightPaddleView -->
<g id="edge22" class="edge">
<title>BootstrapMediatorMap&#45;&gt;RightPaddleView</title>
<path fill="none" stroke="black" d="M312.28,-343.33C324.95,-347.91 338.57,-352.73 351.25,-357 475.67,-398.92 504.44,-419.59 633.25,-445 687.9,-455.78 751.48,-460.45 795.75,-462.46"/>
<polygon fill="black" stroke="black" points="795.48,-465.96 805.62,-462.88 795.78,-458.96 795.48,-465.96"/>
</g>
<!-- HudView -->
<g id="node24" class="node">
<title>HudView</title>
<polygon fill="none" stroke="black" points="718.62,-290 662.88,-290 662.88,-254 718.62,-254 718.62,-290"/>
<text xml:space="preserve" text-anchor="middle" x="690.75" y="-268.12" font-family="Times New Roman,serif" font-size="10.00">HudView</text>
</g>
<!-- BootstrapMediatorMap&#45;&gt;HudView -->
<g id="edge23" class="edge">
<title>BootstrapMediatorMap&#45;&gt;HudView</title>
<path fill="none" stroke="black" d="M318.24,-318.13C406.04,-307.23 575.01,-286.25 651.03,-276.81"/>
<polygon fill="black" stroke="black" points="651.41,-280.29 660.9,-275.58 650.55,-273.34 651.41,-280.29"/>
</g>
<!-- AirAssetsService -->
<g id="node17" class="node">
<title>AirAssetsService</title>
<polygon fill="none" stroke="black" points="733.62,-582 647.88,-582 647.88,-546 733.62,-546 733.62,-582"/>
<text xml:space="preserve" text-anchor="middle" x="690.75" y="-560.12" font-family="Times New Roman,serif" font-size="10.00">AirAssetsService</text>
</g>
<!-- BootstrapServices&#45;&gt;AirAssetsService -->
<g id="edge16" class="edge">
<title>BootstrapServices&#45;&gt;AirAssetsService</title>
<path fill="none" stroke="black" d="M441.14,-541.07C493.34,-545.89 580.17,-553.89 636.17,-559.06"/>
<polygon fill="black" stroke="black" points="635.84,-562.54 646.12,-559.98 636.48,-555.57 635.84,-562.54"/>
</g>
<!-- StartLoadingAssetsCommand&#45;&gt;AirAssetsService -->
<g id="edge24" class="edge">
<title>StartLoadingAssetsCommand&#45;&gt;AirAssetsService</title>
<path fill="none" stroke="black" d="M596.42,-576.15C609.73,-574.42 623.51,-572.63 636.27,-570.96"/>
<polygon fill="black" stroke="black" points="636.69,-574.44 646.16,-569.68 635.79,-567.5 636.69,-574.44"/>
</g>
<!-- PlayerWonCommand&#45;&gt;BallModel -->
<g id="edge25" class="edge">
<title>PlayerWonCommand&#45;&gt;BallModel</title>
<path fill="none" stroke="black" d="M579.08,-632.41C601.68,-629.47 627.95,-626.05 649.23,-623.28"/>
<polygon fill="black" stroke="black" points="649.52,-626.77 658.98,-622.01 648.61,-619.83 649.52,-626.77"/>
</g>
<!-- PlayerWonCommand&#45;&gt;HudModel -->
<g id="edge26" class="edge">
<title>PlayerWonCommand&#45;&gt;HudModel</title>
<path fill="none" stroke="black" d="M579.08,-649.35C601.52,-653.94 627.59,-659.28 648.79,-663.62"/>
<polygon fill="black" stroke="black" points="648.03,-667.03 658.53,-665.61 649.43,-660.18 648.03,-667.03"/>
</g>
<!-- MainView&#45;&gt;BallView -->
<g id="edge32" class="edge">
<title>MainView&#45;&gt;BallView</title>
<path fill="none" stroke="black" d="M557.7,-353.84C584.02,-348.29 622.9,-340.1 651.66,-334.03"/>
<polygon fill="black" stroke="black" points="652.37,-337.46 661.43,-331.97 650.92,-330.61 652.37,-337.46"/>
</g>
<!-- MainView&#45;&gt;LeftPaddleView -->
<g id="edge33" class="edge">
<title>MainView&#45;&gt;LeftPaddleView</title>
<path fill="none" stroke="black" d="M548.27,-378.39C576.84,-404.96 629.76,-454.2 662.16,-484.33"/>
<polygon fill="black" stroke="black" points="659.51,-486.65 669.21,-490.89 664.27,-481.52 659.51,-486.65"/>
</g>
<!-- MainView&#45;&gt;RightPaddleView -->
<g id="edge34" class="edge">
<title>MainView&#45;&gt;RightPaddleView</title>
<path fill="none" stroke="black" d="M557.71,-359.78C600.9,-360.4 683.65,-365.26 748.25,-391 775.95,-402.04 803.27,-422.04 822.75,-438.32"/>
<polygon fill="black" stroke="black" points="820.36,-440.88 830.23,-444.73 824.92,-435.57 820.36,-440.88"/>
</g>
<!-- MainView&#45;&gt;HudView -->
<g id="edge35" class="edge">
<title>MainView&#45;&gt;HudView</title>
<path fill="none" stroke="black" d="M557.49,-342.26C578.32,-329.73 607.21,-312.78 633.25,-299 639.43,-295.73 646.07,-292.4 652.55,-289.25"/>
<polygon fill="black" stroke="black" points="653.65,-292.6 661.15,-285.12 650.62,-286.29 653.65,-292.6"/>
</g>
<!-- NetShape -->
<g id="node29" class="node">
<title>NetShape</title>
<polygon fill="none" stroke="black" points="718.62,-436 662.88,-436 662.88,-400 718.62,-400 718.62,-436"/>
<text xml:space="preserve" text-anchor="middle" x="690.75" y="-414.12" font-family="Times New Roman,serif" font-size="10.00">NetShape</text>
</g>
<!-- MainView&#45;&gt;NetShape -->
<g id="edge36" class="edge">
<title>MainView&#45;&gt;NetShape</title>
<path fill="none" stroke="black" d="M557.7,-370.5C584.1,-380 623.11,-394.03 651.9,-404.38"/>
<polygon fill="black" stroke="black" points="650.36,-407.55 660.95,-407.64 652.73,-400.96 650.36,-407.55"/>
</g>
<!-- StarlingGameMediator -->
<g id="node25" class="node">
<title>StarlingGameMediator</title>
<polygon fill="none" stroke="black" points="745.62,-182 635.88,-182 635.88,-146 745.62,-146 745.62,-182"/>
<text xml:space="preserve" text-anchor="middle" x="690.75" y="-160.12" font-family="Times New Roman,serif" font-size="10.00">StarlingGameMediator</text>
</g>
<!-- StarlingGameView&#45;&gt;StarlingGameMediator -->
<g id="edge27" class="edge">
<title>StarlingGameView&#45;&gt;StarlingGameMediator</title>
<path fill="none" stroke="black" d="M574.71,-164C590.13,-164 607.63,-164 624.24,-164"/>
<polygon fill="black" stroke="black" points="624.04,-167.5 634.04,-164 624.04,-160.5 624.04,-167.5"/>
</g>
<!-- LoadingScreenMediator -->
<g id="node28" class="node">
<title>LoadingScreenMediator</title>
<polygon fill="none" stroke="black" points="748.25,-236 633.25,-236 633.25,-200 748.25,-200 748.25,-236"/>
<text xml:space="preserve" text-anchor="middle" x="690.75" y="-214.12" font-family="Times New Roman,serif" font-size="10.00">LoadingScreenMediator</text>
</g>
<!-- LoadingScreenView&#45;&gt;LoadingScreenMediator -->
<g id="edge31" class="edge">
<title>LoadingScreenView&#45;&gt;LoadingScreenMediator</title>
<path fill="none" stroke="black" d="M577.32,-218C591.28,-218 606.75,-218 621.65,-218"/>
<polygon fill="black" stroke="black" points="621.37,-221.5 631.37,-218 621.37,-214.5 621.37,-221.5"/>
</g>
<!-- BallMediator -->
<g id="node26" class="node">
<title>BallMediator</title>
<polygon fill="none" stroke="black" points="887.25,-344 816.5,-344 816.5,-308 887.25,-308 887.25,-344"/>
<text xml:space="preserve" text-anchor="middle" x="851.88" y="-322.12" font-family="Times New Roman,serif" font-size="10.00">BallMediator</text>
</g>
<!-- BallView&#45;&gt;BallMediator -->
<g id="edge29" class="edge">
<title>BallView&#45;&gt;BallMediator</title>
<path fill="none" stroke="black" d="M718.74,-326C742.25,-326 776.84,-326 804.74,-326"/>
<polygon fill="black" stroke="black" points="804.72,-329.5 814.72,-326 804.72,-322.5 804.72,-329.5"/>
</g>
<!-- LeftPaddleView&#45;&gt;RightPaddleView -->
<g id="edge37" class="edge">
<title>LeftPaddleView&#45;&gt;RightPaddleView</title>
<path fill="none" stroke="black" stroke-dasharray="5,2" d="M731.9,-498.39C751.43,-492.75 775.18,-485.88 796.32,-479.77"/>
<polygon fill="black" stroke="black" points="797.01,-483.22 805.64,-477.08 795.06,-476.49 797.01,-483.22"/>
<text xml:space="preserve" text-anchor="middle" x="777.88" y="-491.58" font-family="Times New Roman,serif" font-size="14.00">peer</text>
</g>
<!-- HudMediator -->
<g id="node27" class="node">
<title>HudMediator</title>
<polygon fill="none" stroke="black" points="887.62,-290 816.12,-290 816.12,-254 887.62,-254 887.62,-290"/>
<text xml:space="preserve" text-anchor="middle" x="851.88" y="-268.12" font-family="Times New Roman,serif" font-size="10.00">HudMediator</text>
</g>
<!-- HudView&#45;&gt;HudMediator -->
<g id="edge30" class="edge">
<title>HudView&#45;&gt;HudMediator</title>
<path fill="none" stroke="black" d="M719.1,-272C742.51,-272 776.7,-272 804.39,-272"/>
<polygon fill="black" stroke="black" points="804.3,-275.5 814.3,-272 804.3,-268.5 804.3,-275.5"/>
</g>
<!-- StarlingGameMediator&#45;&gt;TickSignal -->
<g id="edge28" class="edge">
<title>StarlingGameMediator&#45;&gt;TickSignal</title>
<path fill="none" stroke="black" d="M746.07,-154.44C766.89,-150.78 790.29,-146.66 809.69,-143.25"/>
<polygon fill="black" stroke="black" points="810.16,-146.72 819.4,-141.54 808.95,-139.82 810.16,-146.72"/>
</g>
</g>
</svg>
